<svg width="20" height="16" viewBox="0 0 20 16" fill="none" xmlns="http://www.w3.org/2000/svg">
<path opacity="0.3" d="M9.44434 0C11.835 0 13.905 1.3728 14.9092 3.37305C14.9111 3.3769 14.9157 3.37952 14.9199 3.37891C17.5452 3.00301 19.9997 5.10469 20 7.77734C20 10.0819 18.2459 11.9772 16 12.2002L4 12.2227H3.33301C1.49221 12.2225 0 10.7295 0 8.88867C0.000120527 7.06057 1.52692 5.5543 3.34863 5.55566C3.3537 5.55567 3.35874 5.55187 3.35938 5.54688C3.64432 2.43653 6.25968 5.54426e-05 9.44434 0Z" fill="#2C87F2"/>
<path d="M7.5 9.49991L9.64643 7.35348C9.84169 7.15822 10.1583 7.15822 10.3535 7.35348L12.5 9.49991M9.99999 7.99992V15" stroke="#2C87F2" stroke-width="1.5" stroke-linecap="round"/>
</svg>
