<svg width="14" height="15" viewBox="0 0 14 15" fill="none" xmlns="http://www.w3.org/2000/svg">
<path d="M12.7422 3.04688C13.2344 3.26562 13.5625 3.73047 13.5625 4.25C13.5625 10.3203 9.84375 13.6836 7.49219 14.668C7.16406 14.8047 6.80859 14.8047 6.48047 14.668C3.55469 13.4375 0.4375 9.69141 0.4375 4.25C0.4375 3.73047 0.738281 3.26562 1.23047 3.04688L6.48047 0.859375C6.64453 0.804688 6.80859 0.777344 7 0.777344C7.16406 0.777344 7.32812 0.804688 7.49219 0.859375L12.7422 3.04688ZM7 12.9727C9.54297 11.6875 11.7031 8.67969 11.7852 4.55078L7 2.55469V12.9727Z" fill="#2563EB"/>
</svg>
