<svg width="20" height="15" viewBox="0 0 20 15" fill="none" xmlns="http://www.w3.org/2000/svg">
<path opacity="0.3" d="M3.33333 12.2222C1.49238 12.2222 0 10.7298 0 8.88889C0 7.06056 1.52707 5.55405 3.34902 5.55563C3.35421 5.55563 3.3586 5.55164 3.35907 5.54647C3.64402 2.43609 6.25974 0 9.44444 0C11.8351 0 13.9052 1.37277 14.9093 3.37305C14.9113 3.3769 14.9155 3.37908 14.9198 3.37847C17.5452 3.00249 20 5.10488 20 7.77778C20 10.2324 18.0102 12.2222 15.5556 12.2222L3.33333 12.2222Z" fill="#2C87F2"/>
<path d="M9 6.9408C9 6.91994 9.01071 6.84558 9.15266 6.72572C9.29273 6.60745 9.51933 6.48276 9.83463 6.37016C10.4617 6.1462 11.3545 6 12.36 6C13.3655 6 14.2583 6.1462 14.8854 6.37016C15.2007 6.48276 15.4273 6.60745 15.5673 6.72572C15.7093 6.84558 15.72 6.91994 15.72 6.9408C15.72 6.96166 15.7093 7.03602 15.5673 7.15588C15.4273 7.27416 15.2007 7.39884 14.8854 7.51144C14.2583 7.7354 13.3655 7.8816 12.36 7.8816C11.3545 7.8816 10.4617 7.7354 9.83463 7.51144C9.51933 7.39884 9.29273 7.27416 9.15266 7.15588C9.01071 7.03602 9 6.96166 9 6.9408Z" fill="#2C87F2"/>
<path d="M15.1566 10.4213C15.2258 10.3965 15.2936 10.3706 15.3595 10.3434C15.5254 10.275 15.72 10.3916 15.72 10.571V11.2416C15.72 11.2625 15.7093 11.3368 15.5673 11.4567C15.4273 11.575 15.2007 11.6996 14.8854 11.8122C14.2583 12.0362 13.3655 12.1824 12.36 12.1824C11.3545 12.1824 10.4617 12.0362 9.83463 11.8122C9.51933 11.6996 9.29273 11.575 9.15266 11.4567C9.01071 11.3368 9 11.2625 9 11.2416V10.5711C9 10.3916 9.1946 10.275 9.36046 10.3434C9.42644 10.3706 9.49419 10.3965 9.5634 10.4213C10.2983 10.6837 11.2871 10.8384 12.36 10.8384C13.4329 10.8384 14.4217 10.6837 15.1566 10.4213Z" fill="#2C87F2"/>
<path d="M15.1566 8.27065C15.2258 8.24593 15.2936 8.21998 15.3595 8.19277C15.5254 8.12438 15.72 8.24103 15.72 8.42044V9.09099C15.72 9.11185 15.7093 9.18621 15.5673 9.30607C15.4273 9.42434 15.2007 9.54902 14.8854 9.66163C14.2583 9.88559 13.3655 10.0318 12.36 10.0318C11.3545 10.0318 10.4617 9.88559 9.83463 9.66163C9.51933 9.54902 9.29273 9.42434 9.15266 9.30607C9.01071 9.18621 9 9.11185 9 9.09099V8.42044C9 8.24103 9.1946 8.12438 9.36046 8.19277C9.42644 8.21998 9.49418 8.24593 9.5634 8.27065C10.2983 8.53313 11.2871 8.68779 12.36 8.68779C13.4329 8.68779 14.4217 8.53313 15.1566 8.27065Z" fill="#2C87F2"/>
<path d="M15.1566 12.5715C15.2258 12.5467 15.2936 12.5208 15.3595 12.4936C15.5254 12.4252 15.72 12.5418 15.72 12.7212V13.3918C15.72 13.4126 15.7093 13.487 15.5673 13.6069C15.4273 13.7251 15.2007 13.8498 14.8854 13.9624C14.2583 14.1864 13.3655 14.3326 12.36 14.3326C11.3545 14.3326 10.4617 14.1864 9.83463 13.9624C9.51933 13.8498 9.29273 13.7251 9.15266 13.6069C9.01071 13.487 9 13.4126 9 13.3918V12.7212C9 12.5418 9.1946 12.4252 9.36046 12.4936C9.42644 12.5208 9.49419 12.5467 9.5634 12.5715C10.2983 12.8339 11.2871 12.9886 12.36 12.9886C13.4329 12.9886 14.4217 12.8339 15.1566 12.5715Z" fill="#2C87F2"/>
</svg>
