<svg xmlns="http://www.w3.org/2000/svg" version="1.1" xmlns:xlink="http://www.w3.org/1999/xlink" width="59" height="54"><svg width="59" height="54" viewBox="0 0 59 54" fill="none" xmlns="http://www.w3.org/2000/svg">
<path d="M16.4129 52.0992H21.0203C35.3807 52.0992 47.176 40.2383 47.176 26.0001C47.176 11.762 35.3807 0 21.0203 0H0V19.7694H14.2217V10.1112H16.9272C25.7377 10.1112 32.9526 17.2646 32.9526 26.0001C32.9526 34.7356 25.7377 41.8891 16.9272 41.8891H16.4213V51.1413" fill="#2C87F2"></path>
<path d="M27.1421 22.0795V33.979L26.2403 33.6351C25.1303 33.2224 23.9509 33.016 22.7716 33.016C18.1235 33.016 14.2386 36.3176 14.2386 40.3759V52.0992H0.016922V21.6668H14.2386V24.4869C17.4298 22.8361 21.1066 21.9419 24.8528 21.9419C25.4078 21.9419 25.9628 22.0107 26.5178 22.0107L27.1421 22.0795Z" fill="#383A3E"></path>
<path d="M55.3985 47.1054C55.3985 48.5429 54.8986 49.7821 53.8987 50.7734C52.8989 51.7648 51.6491 52.31 50.1493 52.31C48.6495 52.31 47.4996 51.7648 46.4998 50.7734C45.4999 49.7821 45 48.5429 45 47.1054C45 45.668 45.4999 44.4288 46.4998 43.487C47.4496 42.4957 48.6995 42 50.1493 42C51.5991 42 52.8989 42.4957 53.8987 43.487C54.8986 44.4288 55.3985 45.668 55.3985 47.1054Z" fill="#383A3E"></path>
</svg><style>@media (prefers-color-scheme: light) { :root { filter: none; } }
@media (prefers-color-scheme: dark) { :root { filter: none; } }
</style></svg>